<?xml version="1.0" encoding="iso-8859-1"?>
<!-- Generator: Adobe Illustrator 19.0.0, SVG Export Plug-In . SVG Version: 6.00 Build 0)  -->
<svg version="1.1" id="Layer_1" xmlns="http://www.w3.org/2000/svg" xmlns:xlink="http://www.w3.org/1999/xlink" x="0px" y="0px"
	 viewBox="0 0 512 512" style="enable-background:new 0 0 512 512;" xml:space="preserve">
<g>
	<path style="fill:#155A8E;" d="M488.211,127.765c0-7.887-5.516-14.7-13.23-16.341L260.303,65.762
		c-2.283-0.486-4.642-0.487-6.926-0.006L37.044,111.419c-7.726,1.63-13.256,8.449-13.256,16.346v367.529
		c0,9.226,7.48,16.706,16.706,16.706h431.011c9.226,0,16.706-7.48,16.706-16.706V127.765z"/>
	<path style="fill:#155A8E;" d="M488.211,127.765c0-7.887-5.516-14.7-13.23-16.341L260.303,65.762
		c-2.283-0.486-4.642-0.487-6.926-0.006L37.044,111.419c-7.726,1.63-13.256,8.449-13.256,16.346v367.529
		c0,9.226,7.48,16.706,16.706,16.706h431.011c9.226,0,16.706-7.48,16.706-16.706V127.765z"/>
</g>
<path style="fill:#124D7A;" d="M488.211,127.765c0-7.887-5.516-14.7-13.23-16.341L260.303,65.762
	c-2.263-0.481-4.601-0.483-6.866-0.014V512h218.068c9.226,0,16.706-7.48,16.706-16.706V127.765z"/>
<path style="fill:#4C6BB3;" d="M405.151,10.312c-2.439-6.241-8.182-10.311-14.553-10.311H121.402c-6.37,0-12.115,4.07-14.553,10.311
	c-2.439,6.241-1.093,13.427,3.411,18.205l134.598,142.799c2.955,3.134,6.962,4.896,11.142,4.896c4.18,0,8.187-1.762,11.142-4.896
	L401.74,28.517C406.244,23.739,407.59,16.554,405.151,10.312z"/>
<path style="fill:#A16125;" d="M312.848,384.237c0.652,4.769-1.312,9.533-5.539,13.442l-40.042,37.022
	c-2.588,2.392-6.789,3.814-11.269,3.814s-8.68-1.422-11.269-3.814l-40.042-37.022c-4.227-3.908-6.19-8.673-5.539-13.442
	l30.252-139.933h53.191L312.848,384.237z"/>
<path style="fill:#D8800E;" d="M253.437,244.304h-24.033l-30.252,139.933c-0.652,4.769,1.312,9.533,5.539,13.442l40.042,37.022
	c2.085,1.928,5.224,3.211,8.706,3.642V244.304H253.437z"/>
<path style="fill:#FF9711;" d="M261.197,263.539c-4.25,4.25-11.142,4.25-15.392,0l-37.235-37.235c-1.194-1.194-1.194-3.128,0-4.321
	l44.931-44.931l42.77,42.77c2.387,2.387,2.387,6.257,0,8.644L261.197,263.539z"/>
<path style="fill:#C27526;" d="M296.271,219.821l-42.77-42.77v89.676c2.785,0,5.571-1.062,7.696-3.187l35.074-35.075
	C298.658,226.078,298.658,222.208,296.271,219.821z"/>
<path style="fill:#AAC6E9;" d="M263.126,178.084c12.98-13.038,12.978-34.117-0.006-47.152L142.504,9.834
	C136.109,3.414,127.541,0,118.824,0c-4.293,0-8.622,0.827-12.748,2.531C93.575,7.695,85.419,19.887,85.419,33.413v73.598
	c0,4.139,0.768,8.242,2.268,12.099l47.131,121.311c4.093,10.536,13.235,18.287,24.299,20.604c2.275,0.476,4.568,0.709,6.845,0.709
	c8.794,0,17.343-3.476,23.678-9.839L263.126,178.084z"/>
<path style="fill:#779DD2;" d="M426.58,33.413c0-13.526-8.155-25.717-20.656-30.881C401.799,0.827,397.469,0,393.176,0
	c-8.718,0-17.285,3.412-23.68,9.834L248.879,130.933c-12.984,13.035-12.986,34.114-0.006,47.152l73.486,73.811
	c6.335,6.363,14.884,9.839,23.678,9.839c2.278,0,4.57-0.233,6.845-0.709c11.064-2.315,20.206-10.067,24.299-20.604l47.131-121.311
	c1.499-3.858,2.268-7.961,2.268-12.099V33.413H426.58z"/>
<path style="fill:#155A8E;" d="M441.003,487.498h-64.598c-7.073,0-12.807-5.733-12.807-12.807v-87.825h90.212v87.825
	C453.81,481.765,448.076,487.498,441.003,487.498z"/>
<path style="fill:#1E80CD;" d="M458.041,408.915h-98.674c-3.558,0-6.442-2.885-6.442-6.442v-31.21c0-3.558,2.885-6.442,6.442-6.442
	h98.674c3.558,0,6.442,2.885,6.442,6.442v31.21C464.484,406.03,461.599,408.915,458.041,408.915z"/>
<g>
</g>
<g>
</g>
<g>
</g>
<g>
</g>
<g>
</g>
<g>
</g>
<g>
</g>
<g>
</g>
<g>
</g>
<g>
</g>
<g>
</g>
<g>
</g>
<g>
</g>
<g>
</g>
<g>
</g>
</svg>
