<?xml version="1.0" encoding="iso-8859-1"?>
<!-- Uploaded to: SVG Repo, www.svgrepo.com, Generator: SVG Repo Mixer Tools -->
<svg height="800px" width="800px" version="1.1" id="Layer_1" xmlns="http://www.w3.org/2000/svg" xmlns:xlink="http://www.w3.org/1999/xlink" 
	 viewBox="0 0 512 512" xml:space="preserve">
<path style="fill:#7CCC92;" d="M422.957,512H89.043c-27.619,0-50.087-22.468-50.087-50.087v-267.13
	c0-27.619,22.468-50.087,50.087-50.087h333.913c27.619,0,50.087,22.468,50.087,50.087v267.13
	C473.043,489.532,450.576,512,422.957,512z"/>
<path style="fill:#34B772;" d="M422.957,144.696H256V512h166.957c27.619,0,50.087-22.468,50.087-50.087v-267.13
	C473.043,167.164,450.576,144.696,422.957,144.696z"/>
<path style="fill:#79695A;" d="M356.174,211.478c-9.217,0-16.696-7.473-16.696-16.696V116.87c0-46.032-37.446-83.478-83.478-83.478
	s-83.478,37.446-83.478,83.478v77.913c0,9.223-7.479,16.696-16.696,16.696s-16.696-7.473-16.696-16.696V116.87
	C139.13,52.429,191.555,0,256,0s116.87,52.429,116.87,116.87v77.913C372.87,204.005,365.391,211.478,356.174,211.478z"/>
<path style="fill:#D0D5E5;" d="M368.848,345.087l-9.913-14.869c-5.13-7.679-15.489-9.739-23.152-4.63
	c-7.674,5.114-9.75,15.478-4.63,23.152l9.913,14.869c7.388,11.074-0.5,25.956-13.891,25.956h-9.296
	c2.759-6.142,1.72-13.564-3.324-18.603c-6.521-6.521-17.087-6.521-23.609,0l-22.915,22.921c-7.469,6.708-7.189,17.805-0.693,24.302
	l23.609,23.609c6.522,6.522,17.086,6.522,23.609,0c5.113-5.109,6.074-12.651,3.171-18.837h9.449
	C367.125,422.957,391.023,378.328,368.848,345.087z"/>
<g>
	<path style="fill:#DBE1F1;" d="M340.37,254.553l-8.682,32.278c-2.337,8.682-11.576,14.581-21.148,11.576l-31.61-8.459
		c-8.904-2.337-14.136-11.576-11.799-20.48c1.891-6.901,7.791-11.464,14.47-12.243l-4.675-7.903
		c-3.338-5.899-9.461-8.682-15.36-8.458c-1.891,0.11-3.785,0.557-5.565,1.336c-3.452,1.447-6.457,4.118-8.459,8.014l-7.903,16.028
		c-4.119,8.237-14.136,11.576-22.372,7.569c-8.237-4.118-11.687-14.136-7.568-22.372l7.903-16.028
		c8.014-16.25,22.928-25.377,38.4-27.27c1.891-0.334,3.674-0.445,5.565-0.445c17.141-0.445,34.504,7.903,44.299,24.932l4.675,8.014
		c3.896-5.565,11.019-8.459,17.92-6.567C337.365,236.522,342.706,245.649,340.37,254.553z"/>
	<path style="fill:#DBE1F1;" d="M213.935,386.76l-17.837,1.152c-13.332,0.898-22.202-13.45-15.533-25.006l4.622-8.008
		c4.005,5.525,10.979,8.221,17.791,6.378c8.913-2.386,14.196-11.538,11.815-20.445l-8.416-31.415
		c-2.096-9.638-11.753-15.065-20.683-12.645l-32.25,8.642c-8.902,2.386-14.185,11.538-11.804,20.445
		c1.871,6.973,7.878,11.679,14.679,12.266l-4.668,8.087c-19.984,34.572,6.708,77.62,46.598,75.027l17.837-1.152
		c9.206-0.598,16.174-8.538,15.587-17.74C231.076,393.136,223.022,386.298,213.935,386.76z"/>
</g>
<path style="fill:#6C5B52;" d="M339.478,116.87v77.913c0,9.223,7.479,16.696,16.696,16.696c9.217,0,16.696-7.473,16.696-16.696
	V116.87C372.87,52.429,320.445,0,256,0v33.391C302.032,33.391,339.478,70.837,339.478,116.87z"/>
<path style="fill:#D0D5E5;" d="M340.37,254.553l-8.682,32.278c-2.337,8.682-11.576,14.581-21.148,11.576l-31.61-8.459
	c-8.904-2.337-14.136-11.576-11.799-20.48c1.891-6.901,7.791-11.464,14.47-12.243l-4.675-7.903
	c-3.338-5.899-9.461-8.682-15.36-8.458c-1.891,0.11-3.785,0.557-5.565,1.336v-34.06c1.891-0.334,3.674-0.445,5.565-0.445
	c17.141-0.445,34.504,7.903,44.299,24.932l4.675,8.014c3.896-5.565,11.019-8.459,17.92-6.567
	C337.365,236.522,342.706,245.649,340.37,254.553z"/>
</svg>