<?xml version="1.0" encoding="iso-8859-1"?>
<!-- Generator: Adobe Illustrator 19.0.0, SVG Export Plug-In . SVG Version: 6.00 Build 0)  -->
<svg version="1.1" id="Layer_1" xmlns="http://www.w3.org/2000/svg" xmlns:xlink="http://www.w3.org/1999/xlink" x="0px" y="0px"
	 viewBox="0 0 512 512" style="enable-background:new 0 0 512 512;" xml:space="preserve">
<path style="fill:#F68B4D;" d="M209.185,17.778C209.185,7.96,201.435,0,192.001,0h-55.806c-9.436,0-17.084,7.96-17.084,17.778
	v154.074c0,9.818,7.648,17.778,17.083,17.778H192c9.435,0,17.184-7.96,17.184-17.778V17.778H209.185z"/>
<path style="fill:#F66131;" d="M192,0h-55.806c-9.435,0-17.083,7.96-17.083,17.778v99.204h44.59v72.648H192
	c9.435,0,17.185-7.96,17.185-17.778V17.778C209.185,7.96,201.435,0,192,0z"/>
<path style="fill:#6A81B5;" d="M192.083,0.004h-55.87c-9.446,0-17.102,7.96-17.102,17.778v117.333h90.074V17.781
	C209.185,7.963,201.528,0.004,192.083,0.004z"/>
<g>
	<path style="fill:#263B74;" d="M192.083,0.004h-28.338v135.111h45.44V17.781C209.185,7.963,201.528,0.004,192.083,0.004z"/>
	<path style="fill:#263B74;" d="M284.444,92.444H226.37c-9.818,0-17.778,7.96-17.778,17.778v117.333h93.63V110.222
		C302.222,100.404,294.263,92.444,284.444,92.444z"/>
</g>
<path style="fill:#6A81B5;" d="M255.407,92.444H226.37c-9.818,0-17.778,7.96-17.778,17.778v117.333h46.815V92.444z"/>
<path style="fill:#C6C6C6;" d="M414.222,171.852c0-9.818-7.96-17.778-17.778-17.778H115.556c-9.818,0-17.778,7.96-17.778,17.778
	v322.37c0,9.818,7.96,17.778,17.778,17.778h280.889c9.818,0,17.778-7.96,17.778-17.778V171.852z"/>
<path style="fill:#E2E2E2;" d="M255.407,154.074H115.556c-9.818,0-17.778,7.96-17.778,17.778v322.37
	c0,9.818,7.96,17.778,17.778,17.778h139.852V154.074z"/>
<path style="fill:#CB0E24;" d="M198.268,429.231l-13.837,12.768c-4.539,4.188-11.535,4.188-16.075,0l-13.837-12.768
	c-2.432-2.244-3.815-5.402-3.815-8.71v-95.781c0-6.546,5.306-11.852,11.852-11.852h27.673c6.546,0,11.852,5.306,11.852,11.852
	v95.781C202.084,423.831,200.7,426.988,198.268,429.231z"/>
<path style="fill:#F49B40;" d="M277.281,429.231l-13.837,12.768c-4.539,4.188-11.535,4.188-16.075,0l-13.837-12.768
	c-2.432-2.244-3.815-5.402-3.815-8.71v-95.781c0-6.546,5.306-11.852,11.852-11.852h27.673c6.546,0,11.852,5.306,11.852,11.852
	v95.781C281.096,423.831,279.713,426.988,277.281,429.231z"/>
<path style="fill:#FFCC73;" d="M255.407,445.141c-2.884,0-5.767-1.048-8.037-3.142l-13.837-12.768
	c-2.432-2.244-3.815-5.402-3.815-8.71v-95.781c0-6.546,5.306-11.852,11.852-11.852h13.837V445.141z"/>
<path style="fill:#51D2E1;" d="M356.294,429.231l-13.836,12.768c-4.539,4.188-11.535,4.188-16.075,0l-13.837-12.768
	c-2.432-2.244-3.815-5.402-3.815-8.71v-95.781c0-6.546,5.306-11.852,11.852-11.852h27.673c6.546,0,11.852,5.306,11.852,11.852
	v95.781C360.108,423.831,358.725,426.988,356.294,429.231z"/>
<g>
</g>
<g>
</g>
<g>
</g>
<g>
</g>
<g>
</g>
<g>
</g>
<g>
</g>
<g>
</g>
<g>
</g>
<g>
</g>
<g>
</g>
<g>
</g>
<g>
</g>
<g>
</g>
<g>
</g>
</svg>
