<?xml version="1.0" encoding="iso-8859-1"?>
<!-- Generator: Adobe Illustrator 19.0.0, SVG Export Plug-In . SVG Version: 6.00 Build 0)  -->
<svg version="1.1" id="Layer_1" xmlns="http://www.w3.org/2000/svg" xmlns:xlink="http://www.w3.org/1999/xlink" x="0px" y="0px"
	 viewBox="0 0 512 512" style="enable-background:new 0 0 512 512;" xml:space="preserve">
<path style="fill:#F0C419;" d="M501.244,429.107v21.384H10.756v-21.384c0-19.157,15.532-34.689,34.689-34.689h7.261h43.025h320.538
	h43.025h7.261C485.712,394.418,501.244,409.95,501.244,429.107z"/>
<path style="fill:#97C2F7;" d="M459.294,352.468c11.585,0,20.975,9.39,20.975,20.975c0,11.585-9.39,20.975-20.975,20.975h-43.025
	c-11.585,0-20.975-9.39-20.975-20.975c0-5.787,2.345-11.036,6.142-14.833c3.797-3.797,9.046-6.142,14.833-6.142h21.513H459.294z"/>
<path style="fill:#F78A68;" d="M303.306,272.312v17.5c0,11.585-9.39,20.975-20.975,20.975s-20.975-9.39-20.975-20.975v-43.025
	c0-11.585,9.39-20.975,20.975-20.975c5.787,0,11.036,2.345,14.833,6.142c3.797,3.797,6.142,9.035,6.142,14.833V272.312z"/>
<path style="fill:#F0DF9E;" d="M169.95,82.485v43.025c0,11.585-9.39,20.975-20.975,20.975c-11.585,0-20.975-9.39-20.975-20.975
	V82.485c0-11.585,9.39-20.975,20.975-20.975c5.787,0,11.036,2.345,14.833,6.142C167.605,71.449,169.95,76.698,169.95,82.485z"/>
<path style="fill:#DAEDE2;" d="M95.731,310.787c11.585,0,20.975,9.39,20.975,20.975c0,10.789-8.143,19.673-18.619,20.846
	c-0.774-0.097-1.56-0.14-2.356-0.14H52.706c-0.796,0-1.581,0.043-2.356,0.14c-10.477-1.172-18.619-10.057-18.619-20.846
	c0-5.798,2.345-11.036,6.142-14.833c3.797-3.797,9.046-6.142,14.833-6.142h21.513H95.731z"/>
<path style="fill:#FB7B76;" d="M98.087,352.608c10.477,1.162,18.619,10.046,18.619,20.835c0,11.585-9.39,20.975-20.975,20.975
	H52.706c-11.585,0-20.975-9.39-20.975-20.975c0-5.787,2.345-11.036,6.142-14.833c3.27-3.27,7.626-5.464,12.477-6.002
	c0.774,0.086,1.56,0.129,2.356,0.129h43.025C96.527,352.737,97.312,352.694,98.087,352.608z"/>
<path style="fill:#FFFFFF;" d="M95.731,352.468c0.796,0,1.581,0.043,2.356,0.14c-0.774,0.086-1.56,0.129-2.356,0.129H52.706
	c-0.796,0-1.581-0.043-2.356-0.129c0.774-0.097,1.56-0.14,2.356-0.14H95.731z"/>
<path d="M487.154,388.618c2.466-4.511,3.871-9.682,3.871-15.175c0-17.496-14.234-31.731-31.731-31.731h-10.756v-51.985
	c0-5.941-4.817-10.756-10.756-10.756s-10.756,4.816-10.756,10.756v51.985h-10.756c-8.477,0-16.445,3.3-22.438,9.291
	c-5.992,5.992-9.293,13.961-9.293,22.44c0,3.574,0.603,7.01,1.697,10.218h-260.47c1.095-3.209,1.697-6.644,1.697-10.218
	c0-7.942-2.921-15.246-7.791-20.841c4.868-5.596,7.791-12.9,7.791-20.839c0-17.496-14.234-31.731-31.731-31.731H84.975V156.165
	c0-19.693,13.821-36.207,32.269-40.382v9.727c0,17.496,14.234,31.731,31.731,31.731s31.731-14.235,31.731-31.731v-9.816
	c18.643,4.029,32.656,20.641,32.656,40.472v68.84c0,25.201,14.692,47.449,37.238,57.464v7.342c0,17.496,14.234,31.731,31.731,31.731
	s31.731-14.235,31.731-31.731v-11.093c18.508-11.336,30.139-31.722,30.139-53.714v-22.588c0-22.835,18.577-41.412,41.412-41.412
	c11.059,0,21.462,4.307,29.284,12.119c7.821,7.83,12.128,18.233,12.128,29.293v8.164c0,5.941,4.817,10.756,10.756,10.756
	s10.756-4.816,10.756-10.756v-8.164c0-16.802-6.542-32.604-18.43-44.504c-11.892-11.878-27.694-18.42-44.495-18.42
	c-34.697,0-62.924,28.228-62.924,62.924v22.588c0,9.277-3.16,18.111-8.627,25.232v-3.451c0-8.478-3.3-16.447-9.293-22.439
	c-5.991-5.992-13.961-9.292-22.438-9.292c-17.497,0-31.731,14.235-31.731,31.731v10.756c-9.755-7.67-15.726-19.502-15.726-32.538
	v-68.84c0-31.725-23.604-58.026-54.169-62.302V82.485c0-8.478-3.3-16.447-9.293-22.44c-5.992-5.991-13.961-9.291-22.438-9.291
	c-17.497,0-31.731,14.235-31.731,31.731v11.429c-30.378,4.442-53.782,30.662-53.782,62.252v143.866H52.706
	c-8.477,0-16.445,3.3-22.438,9.291c-5.992,5.992-9.293,13.961-9.293,22.44c0,7.945,2.926,15.252,7.802,20.851
	c-5.041,5.775-7.802,13.087-7.802,20.83c0,5.493,1.405,10.665,3.871,15.175C10.115,396.144,0,411.461,0,429.107v21.384
	c0,5.941,4.817,10.756,10.756,10.756h490.487c5.94,0,10.756-4.816,10.756-10.756v-21.384
	C512,411.461,501.885,396.144,487.154,388.618z M272.113,246.787c0-5.634,4.584-10.218,10.218-10.218
	c2.731,0,5.297,1.062,7.227,2.992c1.929,1.929,2.991,4.495,2.991,7.226v43.025c0,5.634-4.584,10.219-10.218,10.219
	s-10.218-4.584-10.218-10.219V246.787L272.113,246.787z M138.756,82.485c0-5.634,4.584-10.218,10.218-10.218
	c2.731,0,5.299,1.063,7.228,2.992c1.929,1.928,2.99,4.495,2.99,7.226v43.025c0,5.634-4.584,10.218-10.218,10.218
	c-5.634,0-10.218-4.584-10.218-10.218V82.485z M406.05,373.443c0-2.732,1.062-5.299,2.99-7.226c1.93-1.93,4.497-2.992,7.228-2.992
	h43.025c5.634,0,10.219,4.584,10.219,10.219c0,5.634-4.584,10.218-10.219,10.218h-43.025
	C410.635,383.661,406.05,379.077,406.05,373.443z M52.706,383.661c-5.634,0-10.218-4.584-10.218-10.218
	c0-2.732,1.062-5.299,2.991-7.227c1.43-1.431,3.262-2.403,5.229-2.79c0.665,0.041,1.332,0.067,1.997,0.067H95.73
	c0.662,0,1.323-0.025,1.983-0.066c4.748,0.916,8.235,5.082,8.235,10.015c0,5.634-4.584,10.219-10.218,10.219H52.706V383.661z
	 M45.478,324.536c1.93-1.93,4.497-2.992,7.228-2.992h43.025c5.634,0,10.218,4.584,10.218,10.218c0,5.213-3.894,9.578-9.05,10.155
	c-0.379,0.042-0.772,0.063-1.168,0.063H52.706c-0.396,0-0.79-0.022-1.16-0.062c-5.165-0.578-9.059-4.944-9.059-10.156
	C42.487,329.031,43.549,326.463,45.478,324.536z M490.487,439.734H21.513v-10.627c0-13.197,10.736-23.933,23.933-23.933h7.261
	h43.025h320.538h43.025h7.261c13.197,0,23.933,10.736,23.933,23.933V439.734z"/>
<path d="M437.782,235.041c-5.94,0-10.756,4.816-10.756,10.756v7.895c0,5.941,4.817,10.756,10.756,10.756s10.756-4.816,10.756-10.756
	v-7.895C448.538,239.857,443.721,235.041,437.782,235.041z"/>
<g>
</g>
<g>
</g>
<g>
</g>
<g>
</g>
<g>
</g>
<g>
</g>
<g>
</g>
<g>
</g>
<g>
</g>
<g>
</g>
<g>
</g>
<g>
</g>
<g>
</g>
<g>
</g>
<g>
</g>
</svg>
